<?xml version="1.0" standalone="no"?>
<!DOCTYPE svg PUBLIC "-//W3C//DTD SVG 20010904//EN"
 "http://www.w3.org/TR/2001/REC-SVG-20010904/DTD/svg10.dtd">
<svg version="1.0" xmlns="http://www.w3.org/2000/svg"
 width="260.000000pt" height="260.000000pt" viewBox="0 0 260.000000 260.000000"
 preserveAspectRatio="xMidYMid meet">
<metadata>
Created by potrace 1.11, written by Peter Selinger 2001-2013
</metadata>
<g transform="translate(0.000000,260.000000) scale(0.100000,-0.100000)"
fill="#000000" stroke="none">
<path d="M5 2588 c-3 -7 -4 -591 -3 -1298 l3 -1285 1035 0 c1196 0 1091 -12
968 108 -160 155 -408 368 -508 437 -19 13 -37 27 -40 30 -17 21 -167 120
-181 120 -22 0 -48 -37 -94 -133 -101 -208 -293 -278 -418 -151 -113 113 -54
291 129 393 63 36 124 88 124 107 0 7 -26 12 -79 13 -67 1 -92 -3 -176 -34
-193 -70 -319 -48 -403 69 -37 51 -63 140 -55 188 25 166 173 257 362 224 69
-13 100 -30 190 -105 87 -72 110 -79 136 -37 26 41 -69 127 -162 146 -124 25
-250 116 -300 214 -35 69 -37 180 -4 244 55 108 142 165 257 169 81 2 127 -11
189 -55 57 -40 96 -95 152 -212 72 -154 76 -160 107 -191 38 -37 58 -34 72 11
14 43 4 73 -42 125 -53 61 -67 93 -70 165 -3 85 25 156 88 225 86 94 199 127
284 82 69 -37 138 -132 169 -233 30 -99 1 -248 -70 -370 l-24 -41 19 -31 c11
-18 26 -32 34 -32 8 0 30 21 47 48 72 105 171 174 287 202 65 15 104 8 155
-27 102 -71 138 -198 86 -309 -60 -126 -216 -223 -383 -238 -37 -3 -54 -10
-67 -28 -22 -27 -24 -54 -6 -72 6 -7 178 -182 381 -389 318 -324 372 -375 388
-366 17 9 18 48 16 1167 l-3 1157 -1293 3 c-1029 2 -1294 0 -1297 -10z"/>
</g>
</svg>
